<?xml version="1.0" encoding="UTF-8"?>
<svg xmlns="http://www.w3.org/2000/svg" xmlns:xlink="http://www.w3.org/1999/xlink" width="186px" height="60px" viewBox="0 0 185 60" version="1.1">
<g id="surface1">
<path style=" stroke:none;fill-rule:nonzero;fill:rgb(100%,100%,100%);fill-opacity:1;" d="M 40.960938 16.277344 C 41.289062 16.488281 41.675781 16.609375 42.195312 16.609375 C 42.882812 16.609375 43.453125 16.253906 43.453125 15.457031 C 43.453125 14.355469 40.890625 14.21875 40.890625 12.746094 C 40.890625 11.847656 41.675781 11.28125 42.660156 11.28125 C 42.929688 11.28125 43.371094 11.324219 43.757812 11.46875 L 43.667969 11.976562 C 43.417969 11.839844 43.027344 11.765625 42.652344 11.765625 C 42.074219 11.765625 41.441406 12.007812 41.441406 12.730469 C 41.441406 13.859375 44.003906 13.867188 44.003906 15.507812 C 44.003906 16.640625 43.035156 17.089844 42.171875 17.089844 C 41.625 17.089844 41.203125 16.976562 40.90625 16.847656 L 40.960938 16.277344 "/>
<path style=" stroke:none;fill-rule:nonzero;fill:rgb(100%,100%,100%);fill-opacity:1;" d="M 48.34375 13.4375 C 48.070312 13.316406 47.742188 13.230469 47.46875 13.230469 C 46.484375 13.230469 45.933594 13.945312 45.933594 14.941406 C 45.933594 15.875 46.492188 16.65625 47.414062 16.65625 C 47.734375 16.65625 48.03125 16.585938 48.335938 16.472656 L 48.382812 16.945312 C 48.039062 17.066406 47.71875 17.089844 47.335938 17.089844 C 46.019531 17.089844 45.378906 16.085938 45.378906 14.941406 C 45.378906 13.679688 46.1875 12.796875 47.398438 12.796875 C 47.886719 12.796875 48.238281 12.90625 48.382812 12.957031 L 48.34375 13.4375 "/>
<path style=" stroke:none;fill-rule:nonzero;fill:rgb(100%,100%,100%);fill-opacity:1;" d="M 49.863281 10.960938 L 50.367188 10.960938 L 50.367188 13.582031 L 50.382812 13.582031 C 50.601562 13.132812 51.058594 12.796875 51.65625 12.796875 C 52.753906 12.796875 53.050781 13.527344 53.050781 14.542969 L 53.050781 16.996094 L 52.546875 16.996094 L 52.546875 14.550781 C 52.546875 13.839844 52.410156 13.230469 51.578125 13.230469 C 50.679688 13.230469 50.367188 14.082031 50.367188 14.796875 L 50.367188 16.996094 L 49.863281 16.996094 L 49.863281 10.960938 "/>
<path style=" stroke:none;fill-rule:nonzero;fill:rgb(100%,100%,100%);fill-opacity:1;" d="M 59.136719 16.996094 L 58.527344 16.996094 L 57.414062 13.445312 L 57.398438 13.445312 L 56.285156 16.996094 L 55.675781 16.996094 L 54.363281 12.890625 L 54.914062 12.890625 L 55.988281 16.441406 L 56.003906 16.441406 L 57.140625 12.890625 L 57.75 12.890625 L 58.832031 16.441406 L 58.847656 16.441406 L 59.976562 12.890625 L 60.480469 12.890625 L 59.136719 16.996094 "/>
<path style=" stroke:none;fill-rule:nonzero;fill:rgb(100%,100%,100%);fill-opacity:1;" d="M 64.28125 14.652344 C 64.28125 13.9375 63.996094 13.230469 63.242188 13.230469 C 62.496094 13.230469 62.039062 13.976562 62.039062 14.652344 Z M 64.53125 16.867188 C 64.179688 17.011719 63.722656 17.089844 63.347656 17.089844 C 61.992188 17.089844 61.488281 16.171875 61.488281 14.941406 C 61.488281 13.6875 62.175781 12.796875 63.210938 12.796875 C 64.363281 12.796875 64.835938 13.730469 64.835938 14.832031 L 64.835938 15.089844 L 62.039062 15.089844 C 62.039062 15.957031 62.503906 16.65625 63.386719 16.65625 C 63.753906 16.65625 64.289062 16.503906 64.53125 16.351562 L 64.53125 16.867188 "/>
<path style=" stroke:none;fill-rule:nonzero;fill:rgb(100%,100%,100%);fill-opacity:1;" d="M 66.421875 12.890625 L 66.925781 12.890625 L 66.925781 16.996094 L 66.421875 16.996094 Z M 66.925781 11.796875 L 66.421875 11.796875 L 66.421875 11.121094 L 66.925781 11.121094 L 66.925781 11.796875 "/>
<path style=" stroke:none;fill-rule:nonzero;fill:rgb(100%,100%,100%);fill-opacity:1;" d="M 68.445312 16.566406 L 70.902344 13.328125 L 68.542969 13.328125 L 68.542969 12.890625 L 71.488281 12.890625 L 71.488281 13.328125 L 69.03125 16.558594 L 71.488281 16.558594 L 71.488281 16.996094 L 68.445312 16.996094 L 68.445312 16.566406 "/>
<path style=" stroke:none;fill-rule:nonzero;fill:rgb(100%,100%,100%);fill-opacity:1;" d="M 75.492188 14.652344 C 75.492188 13.9375 75.203125 13.230469 74.449219 13.230469 C 73.707031 13.230469 73.25 13.976562 73.25 14.652344 Z M 75.738281 16.867188 C 75.386719 17.011719 74.929688 17.089844 74.554688 17.089844 C 73.199219 17.089844 72.695312 16.171875 72.695312 14.941406 C 72.695312 13.6875 73.386719 12.796875 74.417969 12.796875 C 75.570312 12.796875 76.042969 13.730469 76.042969 14.832031 L 76.042969 15.089844 L 73.25 15.089844 C 73.25 15.957031 73.714844 16.65625 74.59375 16.65625 C 74.960938 16.65625 75.5 16.503906 75.738281 16.351562 L 75.738281 16.867188 "/>
<path style=" stroke:none;fill-rule:nonzero;fill:rgb(100%,100%,100%);fill-opacity:1;" d="M 77.628906 13.808594 C 77.628906 13.359375 77.628906 13.191406 77.597656 12.890625 L 78.101562 12.890625 L 78.101562 13.679688 L 78.117188 13.679688 C 78.300781 13.222656 78.644531 12.796875 79.164062 12.796875 C 79.285156 12.796875 79.429688 12.820312 79.519531 12.84375 L 79.519531 13.375 C 79.414062 13.34375 79.277344 13.328125 79.148438 13.328125 C 78.347656 13.328125 78.132812 14.226562 78.132812 14.96875 L 78.132812 16.996094 L 77.628906 16.996094 L 77.628906 13.808594 "/>
<path style=" stroke:none;fill-rule:nonzero;fill:rgb(100%,100%,100%);fill-opacity:1;" d="M 80.917969 12.890625 L 81.421875 12.890625 L 81.421875 16.996094 L 80.917969 16.996094 Z M 81.421875 11.796875 L 80.917969 11.796875 L 80.917969 11.121094 L 81.421875 11.121094 L 81.421875 11.796875 "/>
<path style=" stroke:none;fill-rule:nonzero;fill:rgb(100%,100%,100%);fill-opacity:1;" d="M 83.007812 16.398438 C 83.3125 16.550781 83.679688 16.65625 84.074219 16.65625 C 84.554688 16.65625 84.976562 16.390625 84.976562 15.925781 C 84.976562 14.953125 83.015625 15.105469 83.015625 13.914062 C 83.015625 13.101562 83.671875 12.796875 84.34375 12.796875 C 84.5625 12.796875 84.992188 12.84375 85.355469 12.980469 L 85.304688 13.421875 C 85.042969 13.300781 84.679688 13.230469 84.402344 13.230469 C 83.882812 13.230469 83.519531 13.390625 83.519531 13.914062 C 83.519531 14.675781 85.53125 14.582031 85.53125 15.925781 C 85.53125 16.792969 84.722656 17.089844 84.105469 17.089844 C 83.710938 17.089844 83.320312 17.042969 82.960938 16.898438 L 83.007812 16.398438 "/>
<path style=" stroke:none;fill-rule:nonzero;fill:rgb(100%,100%,100%);fill-opacity:1;" d="M 89.714844 13.4375 C 89.445312 13.316406 89.117188 13.230469 88.84375 13.230469 C 87.859375 13.230469 87.308594 13.945312 87.308594 14.941406 C 87.308594 15.875 87.867188 16.65625 88.789062 16.65625 C 89.109375 16.65625 89.40625 16.585938 89.707031 16.472656 L 89.757812 16.945312 C 89.414062 17.066406 89.09375 17.089844 88.707031 17.089844 C 87.394531 17.089844 86.753906 16.085938 86.753906 14.941406 C 86.753906 13.679688 87.5625 12.796875 88.773438 12.796875 C 89.261719 12.796875 89.613281 12.90625 89.757812 12.957031 L 89.714844 13.4375 "/>
<path style=" stroke:none;fill-rule:nonzero;fill:rgb(100%,100%,100%);fill-opacity:1;" d="M 91.238281 10.960938 L 91.742188 10.960938 L 91.742188 13.582031 L 91.757812 13.582031 C 91.972656 13.132812 92.429688 12.796875 93.03125 12.796875 C 94.128906 12.796875 94.425781 13.527344 94.425781 14.542969 L 94.425781 16.996094 L 93.917969 16.996094 L 93.917969 14.550781 C 93.917969 13.839844 93.785156 13.230469 92.953125 13.230469 C 92.054688 13.230469 91.742188 14.082031 91.742188 14.796875 L 91.742188 16.996094 L 91.238281 16.996094 L 91.238281 10.960938 "/>
<path style=" stroke:none;fill-rule:nonzero;fill:rgb(100%,100%,100%);fill-opacity:1;" d="M 98.804688 14.652344 C 98.804688 13.9375 98.515625 13.230469 97.761719 13.230469 C 97.019531 13.230469 96.5625 13.976562 96.5625 14.652344 Z M 99.050781 16.867188 C 98.699219 17.011719 98.242188 17.089844 97.867188 17.089844 C 96.511719 17.089844 96.007812 16.171875 96.007812 14.941406 C 96.007812 13.6875 96.699219 12.796875 97.730469 12.796875 C 98.882812 12.796875 99.355469 13.730469 99.355469 14.832031 L 99.355469 15.089844 L 96.5625 15.089844 C 96.5625 15.957031 97.027344 16.65625 97.90625 16.65625 C 98.273438 16.65625 98.8125 16.503906 99.050781 16.351562 L 99.050781 16.867188 "/>
<path style=" stroke:none;fill-rule:nonzero;fill:rgb(100%,100%,100%);fill-opacity:1;" d="M 103.605469 11.378906 L 106.34375 11.378906 L 106.34375 11.863281 L 104.160156 11.863281 L 104.160156 13.867188 L 106.234375 13.867188 L 106.234375 14.347656 L 104.160156 14.347656 L 104.160156 16.511719 L 106.441406 16.511719 L 106.441406 16.996094 L 103.605469 16.996094 L 103.605469 11.378906 "/>
<path style=" stroke:none;fill-rule:nonzero;fill:rgb(100%,100%,100%);fill-opacity:1;" d="M 108.179688 12.890625 L 108.683594 12.890625 L 108.683594 16.996094 L 108.179688 16.996094 Z M 108.683594 11.796875 L 108.179688 11.796875 L 108.179688 11.121094 L 108.683594 11.121094 L 108.683594 11.796875 "/>
<path style=" stroke:none;fill-rule:nonzero;fill:rgb(100%,100%,100%);fill-opacity:1;" d="M 112.101562 16.65625 C 112.996094 16.65625 113.308594 15.691406 113.308594 14.941406 C 113.308594 14.195312 112.996094 13.230469 112.101562 13.230469 C 111.140625 13.230469 110.890625 14.148438 110.890625 14.941406 C 110.890625 15.738281 111.140625 16.65625 112.101562 16.65625 Z M 113.816406 16.996094 L 113.308594 16.996094 L 113.308594 16.34375 L 113.292969 16.34375 C 113.023438 16.867188 112.605469 17.089844 112.019531 17.089844 C 110.902344 17.089844 110.339844 16.15625 110.339844 14.941406 C 110.339844 13.695312 110.820312 12.796875 112.019531 12.796875 C 112.820312 12.796875 113.222656 13.382812 113.292969 13.582031 L 113.308594 13.582031 L 113.308594 10.960938 L 113.816406 10.960938 L 113.816406 16.996094 "/>
<path style=" stroke:none;fill-rule:nonzero;fill:rgb(100%,100%,100%);fill-opacity:1;" d="M 117.144531 16.558594 C 118.058594 16.558594 118.386719 15.691406 118.386719 14.941406 C 118.386719 13.953125 118.097656 13.230469 117.175781 13.230469 C 116.21875 13.230469 115.96875 14.148438 115.96875 14.941406 C 115.96875 15.746094 116.289062 16.558594 117.144531 16.558594 Z M 118.890625 16.65625 C 118.890625 17.800781 118.378906 18.730469 116.976562 18.730469 C 116.441406 18.730469 115.953125 18.578125 115.746094 18.515625 L 115.785156 18.007812 C 116.097656 18.167969 116.542969 18.296875 116.984375 18.296875 C 118.28125 18.296875 118.394531 17.347656 118.394531 16.191406 L 118.378906 16.191406 C 118.105469 16.785156 117.65625 16.996094 117.136719 16.996094 C 115.832031 16.996094 115.414062 15.851562 115.414062 14.941406 C 115.414062 13.695312 115.894531 12.796875 117.097656 12.796875 C 117.640625 12.796875 117.992188 12.867188 118.371094 13.359375 L 118.386719 13.359375 L 118.386719 12.890625 L 118.890625 12.890625 L 118.890625 16.65625 "/>
<path style=" stroke:none;fill-rule:nonzero;fill:rgb(100%,100%,100%);fill-opacity:1;" d="M 123.222656 14.652344 C 123.222656 13.9375 122.933594 13.230469 122.179688 13.230469 C 121.4375 13.230469 120.980469 13.976562 120.980469 14.652344 Z M 123.46875 16.867188 C 123.117188 17.011719 122.660156 17.089844 122.285156 17.089844 C 120.933594 17.089844 120.429688 16.171875 120.429688 14.941406 C 120.429688 13.6875 121.117188 12.796875 122.148438 12.796875 C 123.300781 12.796875 123.773438 13.730469 123.773438 14.832031 L 123.773438 15.089844 L 120.980469 15.089844 C 120.980469 15.957031 121.445312 16.65625 122.324219 16.65625 C 122.691406 16.65625 123.230469 16.503906 123.46875 16.351562 L 123.46875 16.867188 "/>
<path style=" stroke:none;fill-rule:nonzero;fill:rgb(100%,100%,100%);fill-opacity:1;" d="M 125.359375 13.859375 C 125.359375 13.542969 125.359375 13.222656 125.328125 12.890625 L 125.816406 12.890625 L 125.816406 13.625 L 125.832031 13.625 C 126 13.253906 126.304688 12.796875 127.152344 12.796875 C 128.164062 12.796875 128.546875 13.472656 128.546875 14.371094 L 128.546875 16.996094 L 128.042969 16.996094 L 128.042969 14.5 C 128.042969 13.730469 127.769531 13.230469 127.074219 13.230469 C 126.152344 13.230469 125.863281 14.042969 125.863281 14.726562 L 125.863281 16.996094 L 125.359375 16.996094 L 125.359375 13.859375 "/>
<path style=" stroke:none;fill-rule:nonzero;fill:rgb(100%,100%,100%);fill-opacity:1;" d="M 132.027344 16.65625 C 132.910156 16.65625 133.382812 15.894531 133.382812 14.941406 C 133.382812 13.992188 132.910156 13.230469 132.027344 13.230469 C 131.148438 13.230469 130.675781 13.992188 130.675781 14.941406 C 130.675781 15.894531 131.148438 16.65625 132.027344 16.65625 Z M 132.027344 12.796875 C 133.347656 12.796875 133.933594 13.824219 133.933594 14.941406 C 133.933594 16.0625 133.347656 17.089844 132.027344 17.089844 C 130.707031 17.089844 130.125 16.0625 130.125 14.941406 C 130.125 13.824219 130.707031 12.796875 132.027344 12.796875 "/>
<path style=" stroke:none;fill-rule:nonzero;fill:rgb(100%,100%,100%);fill-opacity:1;" d="M 135.199219 16.398438 C 135.503906 16.550781 135.871094 16.65625 136.261719 16.65625 C 136.742188 16.65625 137.167969 16.390625 137.167969 15.925781 C 137.167969 14.953125 135.207031 15.105469 135.207031 13.914062 C 135.207031 13.101562 135.863281 12.796875 136.535156 12.796875 C 136.753906 12.796875 137.183594 12.84375 137.542969 12.980469 L 137.496094 13.421875 C 137.230469 13.300781 136.871094 13.230469 136.59375 13.230469 C 136.070312 13.230469 135.710938 13.390625 135.710938 13.914062 C 135.710938 14.675781 137.722656 14.582031 137.722656 15.925781 C 137.722656 16.792969 136.910156 17.089844 136.296875 17.089844 C 135.902344 17.089844 135.511719 17.042969 135.152344 16.898438 L 135.199219 16.398438 "/>
<path style=" stroke:none;fill-rule:nonzero;fill:rgb(100%,100%,100%);fill-opacity:1;" d="M 138.9375 16.398438 C 139.242188 16.550781 139.609375 16.65625 140 16.65625 C 140.480469 16.65625 140.90625 16.390625 140.90625 15.925781 C 140.90625 14.953125 138.945312 15.105469 138.945312 13.914062 C 138.945312 13.101562 139.601562 12.796875 140.273438 12.796875 C 140.492188 12.796875 140.921875 12.84375 141.28125 12.980469 L 141.234375 13.421875 C 140.96875 13.300781 140.609375 13.230469 140.332031 13.230469 C 139.808594 13.230469 139.449219 13.390625 139.449219 13.914062 C 139.449219 14.675781 141.460938 14.582031 141.460938 15.925781 C 141.460938 16.792969 140.652344 17.089844 140.035156 17.089844 C 139.640625 17.089844 139.25 17.042969 138.890625 16.898438 L 138.9375 16.398438 "/>
<path style=" stroke:none;fill-rule:nonzero;fill:rgb(100%,100%,100%);fill-opacity:1;" d="M 145.476562 14.652344 C 145.476562 13.9375 145.1875 13.230469 144.4375 13.230469 C 143.691406 13.230469 143.234375 13.976562 143.234375 14.652344 Z M 145.726562 16.867188 C 145.375 17.011719 144.917969 17.089844 144.542969 17.089844 C 143.1875 17.089844 142.683594 16.171875 142.683594 14.941406 C 142.683594 13.6875 143.371094 12.796875 144.40625 12.796875 C 145.558594 12.796875 146.03125 13.730469 146.03125 14.832031 L 146.03125 15.089844 L 143.234375 15.089844 C 143.234375 15.957031 143.699219 16.65625 144.582031 16.65625 C 144.949219 16.65625 145.484375 16.503906 145.726562 16.351562 L 145.726562 16.867188 "/>
<path style=" stroke:none;fill-rule:nonzero;fill:rgb(100%,100%,100%);fill-opacity:1;" d="M 147.617188 13.859375 C 147.617188 13.542969 147.617188 13.222656 147.582031 12.890625 L 148.070312 12.890625 L 148.070312 13.625 L 148.089844 13.625 C 148.253906 13.253906 148.558594 12.796875 149.410156 12.796875 C 150.417969 12.796875 150.800781 13.472656 150.800781 14.371094 L 150.800781 16.996094 L 150.296875 16.996094 L 150.296875 14.5 C 150.296875 13.730469 150.027344 13.230469 149.328125 13.230469 C 148.40625 13.230469 148.121094 14.042969 148.121094 14.726562 L 148.121094 16.996094 L 147.617188 16.996094 L 147.617188 13.859375 "/>
<path style=" stroke:none;fill-rule:nonzero;fill:rgb(100%,100%,100%);fill-opacity:1;" d="M 152.378906 16.398438 C 152.683594 16.550781 153.050781 16.65625 153.445312 16.65625 C 153.925781 16.65625 154.347656 16.390625 154.347656 15.925781 C 154.347656 14.953125 152.386719 15.105469 152.386719 13.914062 C 152.386719 13.101562 153.042969 12.796875 153.714844 12.796875 C 153.929688 12.796875 154.363281 12.84375 154.722656 12.980469 L 154.675781 13.421875 C 154.414062 13.300781 154.050781 13.230469 153.769531 13.230469 C 153.25 13.230469 152.890625 13.390625 152.890625 13.914062 C 152.890625 14.675781 154.902344 14.582031 154.902344 15.925781 C 154.902344 16.792969 154.089844 17.089844 153.476562 17.089844 C 153.082031 17.089844 152.691406 17.042969 152.328125 16.898438 L 152.378906 16.398438 "/>
<path style=" stroke:none;fill-rule:nonzero;fill:rgb(100%,100%,100%);fill-opacity:1;" d="M 159.089844 13.4375 C 158.816406 13.316406 158.488281 13.230469 158.214844 13.230469 C 157.230469 13.230469 156.679688 13.945312 156.679688 14.941406 C 156.679688 15.875 157.238281 16.65625 158.160156 16.65625 C 158.480469 16.65625 158.773438 16.585938 159.082031 16.472656 L 159.128906 16.945312 C 158.785156 17.066406 158.460938 17.089844 158.078125 17.089844 C 156.765625 17.089844 156.125 16.085938 156.125 14.941406 C 156.125 13.679688 156.933594 12.796875 158.144531 12.796875 C 158.632812 12.796875 158.984375 12.90625 159.128906 12.957031 L 159.089844 13.4375 "/>
<path style=" stroke:none;fill-rule:nonzero;fill:rgb(100%,100%,100%);fill-opacity:1;" d="M 160.609375 10.960938 L 161.113281 10.960938 L 161.113281 13.582031 L 161.128906 13.582031 C 161.34375 13.132812 161.800781 12.796875 162.402344 12.796875 C 163.5 12.796875 163.796875 13.527344 163.796875 14.542969 L 163.796875 16.996094 L 163.292969 16.996094 L 163.292969 14.550781 C 163.292969 13.839844 163.15625 13.230469 162.324219 13.230469 C 161.425781 13.230469 161.113281 14.082031 161.113281 14.796875 L 161.113281 16.996094 L 160.609375 16.996094 L 160.609375 10.960938 "/>
<path style=" stroke:none;fill-rule:nonzero;fill:rgb(100%,100%,100%);fill-opacity:1;" d="M 167.980469 14.925781 L 167.839844 14.925781 C 166.964844 14.925781 165.925781 15.015625 165.925781 15.917969 C 165.925781 16.457031 166.308594 16.65625 166.773438 16.65625 C 167.957031 16.65625 167.980469 15.617188 167.980469 15.175781 Z M 168.03125 16.335938 L 168.015625 16.335938 C 167.789062 16.824219 167.222656 17.089844 166.71875 17.089844 C 165.554688 17.089844 165.371094 16.300781 165.371094 15.933594 C 165.371094 14.558594 166.828125 14.492188 167.886719 14.492188 L 167.980469 14.492188 L 167.980469 14.285156 C 167.980469 13.582031 167.734375 13.230469 167.054688 13.230469 C 166.628906 13.230469 166.230469 13.328125 165.851562 13.566406 L 165.851562 13.078125 C 166.164062 12.925781 166.691406 12.796875 167.054688 12.796875 C 168.0625 12.796875 168.488281 13.253906 168.488281 14.324219 L 168.488281 16.132812 C 168.488281 16.464844 168.488281 16.710938 168.527344 16.996094 L 168.03125 16.996094 L 168.03125 16.335938 "/>
<path style=" stroke:none;fill-rule:nonzero;fill:rgb(100%,100%,100%);fill-opacity:1;" d="M 170.65625 13.328125 L 169.832031 13.328125 L 169.832031 12.890625 L 170.65625 12.890625 L 170.65625 12.59375 C 170.65625 11.734375 170.6875 10.863281 171.738281 10.863281 C 171.894531 10.863281 172.113281 10.890625 172.207031 10.945312 L 172.175781 11.386719 C 172.074219 11.332031 171.921875 11.300781 171.777344 11.300781 C 171.085938 11.300781 171.160156 12.046875 171.160156 12.539062 L 171.160156 12.890625 L 172.082031 12.890625 L 172.082031 13.328125 L 171.160156 13.328125 L 171.160156 16.996094 L 170.65625 16.996094 L 170.65625 13.328125 "/>
<path style=" stroke:none;fill-rule:nonzero;fill:rgb(100%,100%,100%);fill-opacity:1;" d="M 175.363281 13.328125 L 174.433594 13.328125 L 174.433594 15.980469 C 174.433594 16.351562 174.570312 16.65625 174.980469 16.65625 C 175.171875 16.65625 175.300781 16.617188 175.441406 16.558594 L 175.476562 16.976562 C 175.355469 17.027344 175.109375 17.089844 174.859375 17.089844 C 173.964844 17.089844 173.929688 16.472656 173.929688 15.722656 L 173.929688 13.328125 L 173.128906 13.328125 L 173.128906 12.890625 L 173.929688 12.890625 L 173.929688 11.902344 L 174.433594 11.726562 L 174.433594 12.890625 L 175.363281 12.890625 L 175.363281 13.328125 "/>
<path style=" stroke:none;fill-rule:nonzero;fill:rgb(100%,100%,100%);fill-opacity:1;" d="M 44.886719 23.101562 C 44.53125 22.917969 44.027344 22.859375 43.636719 22.859375 C 42.1875 22.859375 41.371094 23.890625 41.371094 25.28125 C 41.371094 26.699219 42.164062 27.703125 43.636719 27.703125 C 44.003906 27.703125 44.5625 27.65625 44.886719 27.460938 L 44.917969 27.945312 C 44.613281 28.128906 43.988281 28.1875 43.636719 28.1875 C 41.875 28.1875 40.816406 27.019531 40.816406 25.28125 C 40.816406 23.578125 41.90625 22.378906 43.636719 22.378906 C 43.964844 22.378906 44.628906 22.433594 44.917969 22.589844 L 44.886719 23.101562 "/>
<path style=" stroke:none;fill-rule:nonzero;fill:rgb(100%,100%,100%);fill-opacity:1;" d="M 48.351562 27.753906 C 49.230469 27.753906 49.703125 26.988281 49.703125 26.039062 C 49.703125 25.089844 49.230469 24.324219 48.351562 24.324219 C 47.472656 24.324219 47 25.089844 47 26.039062 C 47 26.988281 47.472656 27.753906 48.351562 27.753906 Z M 48.351562 23.890625 C 49.671875 23.890625 50.257812 24.921875 50.257812 26.039062 C 50.257812 27.15625 49.671875 28.1875 48.351562 28.1875 C 47.03125 28.1875 46.445312 27.15625 46.445312 26.039062 C 46.445312 24.921875 47.03125 23.890625 48.351562 23.890625 "/>
<path style=" stroke:none;fill-rule:nonzero;fill:rgb(100%,100%,100%);fill-opacity:1;" d="M 51.832031 24.953125 C 51.832031 24.640625 51.832031 24.316406 51.800781 23.988281 L 52.289062 23.988281 L 52.289062 24.71875 L 52.304688 24.71875 C 52.472656 24.347656 52.777344 23.890625 53.625 23.890625 C 54.636719 23.890625 55.019531 24.566406 55.019531 25.46875 L 55.019531 28.089844 L 54.515625 28.089844 L 54.515625 25.597656 C 54.515625 24.824219 54.242188 24.324219 53.546875 24.324219 C 52.625 24.324219 52.339844 25.136719 52.339844 25.820312 L 52.339844 28.089844 L 51.832031 28.089844 L 51.832031 24.953125 "/>
<path style=" stroke:none;fill-rule:nonzero;fill:rgb(100%,100%,100%);fill-opacity:1;" d="M 57.253906 24.421875 L 56.429688 24.421875 L 56.429688 23.988281 L 57.253906 23.988281 L 57.253906 23.691406 C 57.253906 22.828125 57.285156 21.960938 58.335938 21.960938 C 58.496094 21.960938 58.710938 21.984375 58.808594 22.039062 L 58.773438 22.484375 C 58.671875 22.425781 58.519531 22.394531 58.375 22.394531 C 57.6875 22.394531 57.757812 23.144531 57.757812 23.632812 L 57.757812 23.988281 L 58.679688 23.988281 L 58.679688 24.421875 L 57.757812 24.421875 L 57.757812 28.089844 L 57.253906 28.089844 L 57.253906 24.421875 "/>
<path style=" stroke:none;fill-rule:nonzero;fill:rgb(100%,100%,100%);fill-opacity:1;" d="M 61.847656 22.402344 L 62.480469 22.402344 L 61.472656 23.5625 L 61.105469 23.5625 Z M 62.691406 25.75 C 62.691406 25.03125 62.402344 24.324219 61.648438 24.324219 C 60.902344 24.324219 60.449219 25.074219 60.449219 25.75 Z M 62.9375 27.960938 C 62.585938 28.105469 62.128906 28.1875 61.753906 28.1875 C 60.398438 28.1875 59.894531 27.269531 59.894531 26.039062 C 59.894531 24.785156 60.585938 23.890625 61.617188 23.890625 C 62.769531 23.890625 63.242188 24.824219 63.242188 25.925781 L 63.242188 26.183594 L 60.449219 26.183594 C 60.449219 27.050781 60.914062 27.753906 61.792969 27.753906 C 62.160156 27.753906 62.699219 27.597656 62.9375 27.445312 L 62.9375 27.960938 "/>
<path style=" stroke:none;fill-rule:nonzero;fill:rgb(100%,100%,100%);fill-opacity:1;" d="M 66.347656 27.753906 C 67.246094 27.753906 67.558594 26.785156 67.558594 26.039062 C 67.558594 25.289062 67.246094 24.324219 66.347656 24.324219 C 65.386719 24.324219 65.140625 25.242188 65.140625 26.039062 C 65.140625 26.835938 65.386719 27.753906 66.347656 27.753906 Z M 68.0625 28.089844 L 67.558594 28.089844 L 67.558594 27.4375 L 67.542969 27.4375 C 67.269531 27.960938 66.851562 28.1875 66.269531 28.1875 C 65.148438 28.1875 64.585938 27.253906 64.585938 26.039062 C 64.585938 24.792969 65.066406 23.890625 66.269531 23.890625 C 67.070312 23.890625 67.46875 24.476562 67.542969 24.679688 L 67.558594 24.679688 L 67.558594 22.058594 L 68.0625 22.058594 L 68.0625 28.089844 "/>
<path style=" stroke:none;fill-rule:nonzero;fill:rgb(100%,100%,100%);fill-opacity:1;" d="M 71.550781 22.402344 L 72.183594 22.402344 L 71.175781 23.5625 L 70.808594 23.5625 Z M 72.390625 25.75 C 72.390625 25.03125 72.105469 24.324219 71.351562 24.324219 C 70.605469 24.324219 70.152344 25.074219 70.152344 25.75 Z M 72.640625 27.960938 C 72.289062 28.105469 71.832031 28.1875 71.457031 28.1875 C 70.101562 28.1875 69.597656 27.269531 69.597656 26.039062 C 69.597656 24.785156 70.289062 23.890625 71.320312 23.890625 C 72.472656 23.890625 72.945312 24.824219 72.945312 25.925781 L 72.945312 26.183594 L 70.152344 26.183594 C 70.152344 27.050781 70.617188 27.753906 71.496094 27.753906 C 71.863281 27.753906 72.402344 27.597656 72.640625 27.445312 L 72.640625 27.960938 "/>
<path style=" stroke:none;fill-rule:nonzero;fill:rgb(100%,100%,100%);fill-opacity:1;" d="M 74.53125 24.902344 C 74.53125 24.453125 74.53125 24.285156 74.5 23.988281 L 75.003906 23.988281 L 75.003906 24.777344 L 75.019531 24.777344 C 75.203125 24.316406 75.546875 23.890625 76.066406 23.890625 C 76.1875 23.890625 76.332031 23.914062 76.417969 23.9375 L 76.417969 24.46875 C 76.316406 24.4375 76.179688 24.421875 76.050781 24.421875 C 75.25 24.421875 75.035156 25.324219 75.035156 26.0625 L 75.035156 28.089844 L 74.53125 28.089844 L 74.53125 24.902344 "/>
<path style=" stroke:none;fill-rule:nonzero;fill:rgb(100%,100%,100%);fill-opacity:1;" d="M 80.117188 26.023438 L 79.972656 26.023438 C 79.101562 26.023438 78.0625 26.109375 78.0625 27.011719 C 78.0625 27.550781 78.445312 27.753906 78.910156 27.753906 C 80.09375 27.753906 80.117188 26.714844 80.117188 26.273438 Z M 80.167969 27.429688 L 80.152344 27.429688 C 79.925781 27.921875 79.359375 28.1875 78.851562 28.1875 C 77.691406 28.1875 77.507812 27.398438 77.507812 27.027344 C 77.507812 25.652344 78.964844 25.589844 80.023438 25.589844 L 80.117188 25.589844 L 80.117188 25.378906 C 80.117188 24.679688 79.871094 24.324219 79.191406 24.324219 C 78.765625 24.324219 78.363281 24.421875 77.988281 24.664062 L 77.988281 24.171875 C 78.300781 24.019531 78.828125 23.890625 79.191406 23.890625 C 80.199219 23.890625 80.621094 24.347656 80.621094 25.417969 L 80.621094 27.230469 C 80.621094 27.558594 80.621094 27.808594 80.664062 28.089844 L 80.167969 28.089844 L 80.167969 27.429688 "/>
<path style=" stroke:none;fill-rule:nonzero;fill:rgb(100%,100%,100%);fill-opacity:1;" d="M 84.210938 24.421875 L 83.28125 24.421875 L 83.28125 27.078125 C 83.28125 27.445312 83.417969 27.753906 83.824219 27.753906 C 84.015625 27.753906 84.144531 27.710938 84.289062 27.65625 L 84.320312 28.074219 C 84.203125 28.121094 83.953125 28.1875 83.703125 28.1875 C 82.808594 28.1875 82.777344 27.566406 82.777344 26.820312 L 82.777344 24.421875 L 81.976562 24.421875 L 81.976562 23.988281 L 82.777344 23.988281 L 82.777344 22.996094 L 83.28125 22.820312 L 83.28125 23.988281 L 84.210938 23.988281 L 84.210938 24.421875 "/>
<path style=" stroke:none;fill-rule:nonzero;fill:rgb(100%,100%,100%);fill-opacity:1;" d="M 85.738281 23.988281 L 86.242188 23.988281 L 86.242188 28.089844 L 85.738281 28.089844 Z M 86.242188 22.894531 L 85.738281 22.894531 L 85.738281 22.21875 L 86.242188 22.21875 L 86.242188 22.894531 "/>
<path style=" stroke:none;fill-rule:nonzero;fill:rgb(100%,100%,100%);fill-opacity:1;" d="M 89.734375 27.753906 C 90.613281 27.753906 91.085938 26.988281 91.085938 26.039062 C 91.085938 25.089844 90.613281 24.324219 89.734375 24.324219 C 88.851562 24.324219 88.378906 25.089844 88.378906 26.039062 C 88.378906 26.988281 88.851562 27.753906 89.734375 27.753906 Z M 89.734375 23.890625 C 91.054688 23.890625 91.636719 24.921875 91.636719 26.039062 C 91.636719 27.15625 91.054688 28.1875 89.734375 28.1875 C 88.414062 28.1875 87.828125 27.15625 87.828125 26.039062 C 87.828125 24.921875 88.414062 23.890625 89.734375 23.890625 "/>
<path style=" stroke:none;fill-rule:nonzero;fill:rgb(100%,100%,100%);fill-opacity:1;" d="M 93.214844 24.953125 C 93.214844 24.640625 93.214844 24.316406 93.183594 23.988281 L 93.671875 23.988281 L 93.671875 24.71875 L 93.6875 24.71875 C 93.855469 24.347656 94.160156 23.890625 95.007812 23.890625 C 96.019531 23.890625 96.402344 24.566406 96.402344 25.46875 L 96.402344 28.089844 L 95.898438 28.089844 L 95.898438 25.597656 C 95.898438 24.824219 95.625 24.324219 94.929688 24.324219 C 94.007812 24.324219 93.71875 25.136719 93.71875 25.820312 L 93.71875 28.089844 L 93.214844 28.089844 L 93.214844 24.953125 "/>
<path style=" stroke:none;fill-rule:nonzero;fill:rgb(100%,100%,100%);fill-opacity:1;" d="M 100.75 27.496094 C 101.054688 27.648438 101.421875 27.753906 101.8125 27.753906 C 102.292969 27.753906 102.71875 27.484375 102.71875 27.019531 C 102.71875 26.046875 100.757812 26.199219 100.757812 25.007812 C 100.757812 24.195312 101.414062 23.890625 102.085938 23.890625 C 102.300781 23.890625 102.734375 23.9375 103.09375 24.074219 L 103.046875 24.519531 C 102.78125 24.398438 102.421875 24.324219 102.144531 24.324219 C 101.621094 24.324219 101.261719 24.484375 101.261719 25.007812 C 101.261719 25.773438 103.273438 25.675781 103.273438 27.019531 C 103.273438 27.890625 102.460938 28.1875 101.847656 28.1875 C 101.453125 28.1875 101.0625 28.136719 100.699219 27.992188 L 100.75 27.496094 "/>
<path style=" stroke:none;fill-rule:nonzero;fill:rgb(100%,100%,100%);fill-opacity:1;" d="M 107.984375 27.125 C 107.984375 27.4375 107.984375 27.761719 108.019531 28.089844 L 107.53125 28.089844 L 107.53125 27.359375 L 107.515625 27.359375 C 107.347656 27.726562 107.042969 28.1875 106.191406 28.1875 C 105.183594 28.1875 104.800781 27.511719 104.800781 26.609375 L 104.800781 23.988281 L 105.304688 23.988281 L 105.304688 26.480469 C 105.304688 27.253906 105.578125 27.753906 106.273438 27.753906 C 107.195312 27.753906 107.480469 26.9375 107.480469 26.253906 L 107.480469 23.988281 L 107.984375 23.988281 L 107.984375 27.125 "/>
<path style=" stroke:none;fill-rule:nonzero;fill:rgb(100%,100%,100%);fill-opacity:1;" d="M 109.875 23.988281 L 110.378906 23.988281 L 110.378906 28.089844 L 109.875 28.089844 Z M 110.378906 22.894531 L 109.875 22.894531 L 109.875 22.21875 L 110.378906 22.21875 L 110.378906 22.894531 "/>
<path style=" stroke:none;fill-rule:nonzero;fill:rgb(100%,100%,100%);fill-opacity:1;" d="M 111.964844 27.496094 C 112.269531 27.648438 112.636719 27.753906 113.03125 27.753906 C 113.511719 27.753906 113.933594 27.484375 113.933594 27.019531 C 113.933594 26.046875 111.972656 26.199219 111.972656 25.007812 C 111.972656 24.195312 112.628906 23.890625 113.300781 23.890625 C 113.519531 23.890625 113.949219 23.9375 114.3125 24.074219 L 114.261719 24.519531 C 114 24.398438 113.636719 24.324219 113.359375 24.324219 C 112.835938 24.324219 112.476562 24.484375 112.476562 25.007812 C 112.476562 25.773438 114.488281 25.675781 114.488281 27.019531 C 114.488281 27.890625 113.679688 28.1875 113.0625 28.1875 C 112.667969 28.1875 112.277344 28.136719 111.917969 27.992188 L 111.964844 27.496094 "/>
<path style=" stroke:none;fill-rule:nonzero;fill:rgb(100%,100%,100%);fill-opacity:1;" d="M 115.703125 27.496094 C 116.007812 27.648438 116.378906 27.753906 116.769531 27.753906 C 117.25 27.753906 117.671875 27.484375 117.671875 27.019531 C 117.671875 26.046875 115.710938 26.199219 115.710938 25.007812 C 115.710938 24.195312 116.367188 23.890625 117.042969 23.890625 C 117.257812 23.890625 117.691406 23.9375 118.050781 24.074219 L 118 24.519531 C 117.738281 24.398438 117.378906 24.324219 117.097656 24.324219 C 116.578125 24.324219 116.21875 24.484375 116.21875 25.007812 C 116.21875 25.773438 118.226562 25.675781 118.226562 27.019531 C 118.226562 27.890625 117.417969 28.1875 116.800781 28.1875 C 116.410156 28.1875 116.015625 28.136719 115.65625 27.992188 L 115.703125 27.496094 "/>
<path style=" stroke:none;fill-rule:nonzero;fill:rgb(100%,100%,100%);fill-opacity:1;" d="M 122.246094 25.75 C 122.246094 25.03125 121.957031 24.324219 121.203125 24.324219 C 120.460938 24.324219 120.003906 25.074219 120.003906 25.75 Z M 122.492188 27.960938 C 122.140625 28.105469 121.683594 28.1875 121.308594 28.1875 C 119.957031 28.1875 119.449219 27.269531 119.449219 26.039062 C 119.449219 24.785156 120.140625 23.890625 121.171875 23.890625 C 122.324219 23.890625 122.796875 24.824219 122.796875 25.925781 L 122.796875 26.183594 L 120.003906 26.183594 C 120.003906 27.050781 120.46875 27.753906 121.347656 27.753906 C 121.71875 27.753906 122.253906 27.597656 122.492188 27.445312 L 122.492188 27.960938 "/>
<path style=" stroke:none;fill-rule:nonzero;fill:rgb(100%,100%,100%);fill-opacity:1;" d="M 44.886719 34.199219 C 44.53125 34.011719 44.027344 33.957031 43.636719 33.957031 C 42.1875 33.957031 41.371094 34.984375 41.371094 36.378906 C 41.371094 37.792969 42.164062 38.800781 43.636719 38.800781 C 44.003906 38.800781 44.5625 38.75 44.886719 38.558594 L 44.917969 39.039062 C 44.613281 39.226562 43.988281 39.28125 43.636719 39.28125 C 41.875 39.28125 40.816406 38.117188 40.816406 36.378906 C 40.816406 34.671875 41.90625 33.472656 43.636719 33.472656 C 43.964844 33.472656 44.628906 33.53125 44.917969 33.683594 L 44.886719 34.199219 "/>
<path style=" stroke:none;fill-rule:nonzero;fill:rgb(100%,100%,100%);fill-opacity:1;" d="M 48.351562 38.847656 C 49.230469 38.847656 49.703125 38.082031 49.703125 37.132812 C 49.703125 36.183594 49.230469 35.421875 48.351562 35.421875 C 47.472656 35.421875 47 36.183594 47 37.132812 C 47 38.082031 47.472656 38.847656 48.351562 38.847656 Z M 48.351562 34.984375 C 49.671875 34.984375 50.257812 36.015625 50.257812 37.132812 C 50.257812 38.253906 49.671875 39.28125 48.351562 39.28125 C 47.03125 39.28125 46.445312 38.253906 46.445312 37.132812 C 46.445312 36.015625 47.03125 34.984375 48.351562 34.984375 "/>
<path style=" stroke:none;fill-rule:nonzero;fill:rgb(100%,100%,100%);fill-opacity:1;" d="M 51.832031 36.046875 C 51.832031 35.734375 51.832031 35.414062 51.800781 35.082031 L 52.289062 35.082031 L 52.289062 35.816406 L 52.304688 35.816406 C 52.472656 35.445312 52.777344 34.984375 53.625 34.984375 C 54.636719 34.984375 55.019531 35.660156 55.019531 36.5625 L 55.019531 39.183594 L 54.515625 39.183594 L 54.515625 36.691406 C 54.515625 35.917969 54.242188 35.421875 53.546875 35.421875 C 52.625 35.421875 52.339844 36.234375 52.339844 36.917969 L 52.339844 39.183594 L 51.832031 39.183594 L 51.832031 36.046875 "/>
<path style=" stroke:none;fill-rule:nonzero;fill:rgb(100%,100%,100%);fill-opacity:1;" d="M 57.253906 35.515625 L 56.429688 35.515625 L 56.429688 35.082031 L 57.253906 35.082031 L 57.253906 34.785156 C 57.253906 33.925781 57.285156 33.054688 58.335938 33.054688 C 58.496094 33.054688 58.710938 33.078125 58.808594 33.136719 L 58.773438 33.578125 C 58.671875 33.523438 58.519531 33.488281 58.375 33.488281 C 57.6875 33.488281 57.757812 34.238281 57.757812 34.730469 L 57.757812 35.082031 L 58.679688 35.082031 L 58.679688 35.515625 L 57.757812 35.515625 L 57.757812 39.183594 L 57.253906 39.183594 L 57.253906 35.515625 "/>
<path style=" stroke:none;fill-rule:nonzero;fill:rgb(100%,100%,100%);fill-opacity:1;" d="M 62.691406 36.84375 C 62.691406 36.128906 62.402344 35.421875 61.648438 35.421875 C 60.902344 35.421875 60.449219 36.167969 60.449219 36.84375 Z M 62.9375 39.054688 C 62.585938 39.203125 62.128906 39.28125 61.753906 39.28125 C 60.398438 39.28125 59.894531 38.363281 59.894531 37.132812 C 59.894531 35.878906 60.585938 34.984375 61.617188 34.984375 C 62.769531 34.984375 63.242188 35.917969 63.242188 37.019531 L 63.242188 37.277344 L 60.449219 37.277344 C 60.449219 38.148438 60.914062 38.847656 61.792969 38.847656 C 62.160156 38.847656 62.699219 38.695312 62.9375 38.542969 L 62.9375 39.054688 "/>
<path style=" stroke:none;fill-rule:nonzero;fill:rgb(100%,100%,100%);fill-opacity:1;" d="M 66.347656 38.847656 C 67.246094 38.847656 67.558594 37.882812 67.558594 37.132812 C 67.558594 36.386719 67.246094 35.421875 66.347656 35.421875 C 65.386719 35.421875 65.140625 36.335938 65.140625 37.132812 C 65.140625 37.929688 65.386719 38.847656 66.347656 38.847656 Z M 68.0625 39.183594 L 67.558594 39.183594 L 67.558594 38.535156 L 67.542969 38.535156 C 67.269531 39.054688 66.851562 39.28125 66.269531 39.28125 C 65.148438 39.28125 64.585938 38.347656 64.585938 37.132812 C 64.585938 35.886719 65.066406 34.984375 66.269531 34.984375 C 67.070312 34.984375 67.46875 35.574219 67.542969 35.773438 L 67.558594 35.773438 L 67.558594 33.152344 L 68.0625 33.152344 L 68.0625 39.183594 "/>
<path style=" stroke:none;fill-rule:nonzero;fill:rgb(100%,100%,100%);fill-opacity:1;" d="M 72.390625 36.84375 C 72.390625 36.128906 72.105469 35.421875 71.351562 35.421875 C 70.605469 35.421875 70.152344 36.167969 70.152344 36.84375 Z M 72.640625 39.054688 C 72.289062 39.203125 71.832031 39.28125 71.457031 39.28125 C 70.101562 39.28125 69.597656 38.363281 69.597656 37.132812 C 69.597656 35.878906 70.289062 34.984375 71.320312 34.984375 C 72.472656 34.984375 72.945312 35.917969 72.945312 37.019531 L 72.945312 37.277344 L 70.152344 37.277344 C 70.152344 38.148438 70.617188 38.847656 71.496094 38.847656 C 71.863281 38.847656 72.402344 38.695312 72.640625 38.542969 L 72.640625 39.054688 "/>
<path style=" stroke:none;fill-rule:nonzero;fill:rgb(100%,100%,100%);fill-opacity:1;" d="M 74.53125 36 C 74.53125 35.550781 74.53125 35.378906 74.5 35.082031 L 75.003906 35.082031 L 75.003906 35.871094 L 75.019531 35.871094 C 75.203125 35.414062 75.546875 34.984375 76.066406 34.984375 C 76.1875 34.984375 76.332031 35.011719 76.417969 35.035156 L 76.417969 35.566406 C 76.316406 35.535156 76.179688 35.515625 76.050781 35.515625 C 75.25 35.515625 75.035156 36.417969 75.035156 37.15625 L 75.035156 39.183594 L 74.53125 39.183594 L 74.53125 36 "/>
<path style=" stroke:none;fill-rule:nonzero;fill:rgb(100%,100%,100%);fill-opacity:1;" d="M 80.117188 37.117188 L 79.972656 37.117188 C 79.101562 37.117188 78.0625 37.207031 78.0625 38.109375 C 78.0625 38.644531 78.445312 38.847656 78.910156 38.847656 C 80.09375 38.847656 80.117188 37.808594 80.117188 37.367188 Z M 80.167969 38.527344 L 80.152344 38.527344 C 79.925781 39.015625 79.359375 39.28125 78.851562 39.28125 C 77.691406 39.28125 77.507812 38.492188 77.507812 38.125 C 77.507812 36.75 78.964844 36.683594 80.023438 36.683594 L 80.117188 36.683594 L 80.117188 36.472656 C 80.117188 35.773438 79.871094 35.421875 79.191406 35.421875 C 78.765625 35.421875 78.363281 35.515625 77.988281 35.757812 L 77.988281 35.269531 C 78.300781 35.113281 78.828125 34.984375 79.191406 34.984375 C 80.199219 34.984375 80.621094 35.445312 80.621094 36.515625 L 80.621094 38.324219 C 80.621094 38.65625 80.621094 38.902344 80.664062 39.183594 L 80.167969 39.183594 L 80.167969 38.527344 "/>
<path style=" stroke:none;fill-rule:nonzero;fill:rgb(100%,100%,100%);fill-opacity:1;" d="M 82.070312 38.757812 L 84.53125 35.515625 L 82.167969 35.515625 L 82.167969 35.082031 L 85.113281 35.082031 L 85.113281 35.515625 L 82.65625 38.75 L 85.113281 38.75 L 85.113281 39.183594 L 82.070312 39.183594 L 82.070312 38.757812 "/>
<path style=" stroke:none;fill-rule:nonzero;fill:rgb(100%,100%,100%);fill-opacity:1;" d="M 86.625 35.082031 L 87.132812 35.082031 L 87.132812 39.183594 L 86.625 39.183594 Z M 87.132812 33.988281 L 86.625 33.988281 L 86.625 33.3125 L 87.132812 33.3125 L 87.132812 33.988281 "/>
<path style=" stroke:none;fill-rule:nonzero;fill:rgb(100%,100%,100%);fill-opacity:1;" d="M 90.621094 38.847656 C 91.503906 38.847656 91.972656 38.082031 91.972656 37.132812 C 91.972656 36.183594 91.503906 35.421875 90.621094 35.421875 C 89.742188 35.421875 89.269531 36.183594 89.269531 37.132812 C 89.269531 38.082031 89.742188 38.847656 90.621094 38.847656 Z M 90.621094 34.984375 C 91.941406 34.984375 92.527344 36.015625 92.527344 37.132812 C 92.527344 38.253906 91.941406 39.28125 90.621094 39.28125 C 89.300781 39.28125 88.714844 38.253906 88.714844 37.132812 C 88.714844 36.015625 89.300781 34.984375 90.621094 34.984375 "/>
<path style=" stroke:none;fill-rule:nonzero;fill:rgb(100%,100%,100%);fill-opacity:1;" d="M 94.105469 36.046875 C 94.105469 35.734375 94.105469 35.414062 94.074219 35.082031 L 94.558594 35.082031 L 94.558594 35.816406 L 94.578125 35.816406 C 94.746094 35.445312 95.046875 34.984375 95.898438 34.984375 C 96.90625 34.984375 97.289062 35.660156 97.289062 36.5625 L 97.289062 39.183594 L 96.785156 39.183594 L 96.785156 36.691406 C 96.785156 35.917969 96.515625 35.421875 95.816406 35.421875 C 94.898438 35.421875 94.609375 36.234375 94.609375 36.917969 L 94.609375 39.183594 L 94.105469 39.183594 L 94.105469 36.046875 "/>
<path style=" stroke:none;fill-rule:nonzero;fill:rgb(100%,100%,100%);fill-opacity:1;" d="M 101.667969 36.84375 C 101.667969 36.128906 101.382812 35.421875 100.628906 35.421875 C 99.882812 35.421875 99.429688 36.167969 99.429688 36.84375 Z M 101.917969 39.054688 C 101.566406 39.203125 101.109375 39.28125 100.734375 39.28125 C 99.378906 39.28125 98.875 38.363281 98.875 37.132812 C 98.875 35.878906 99.5625 34.984375 100.597656 34.984375 C 101.75 34.984375 102.222656 35.917969 102.222656 37.019531 L 102.222656 37.277344 L 99.429688 37.277344 C 99.429688 38.148438 99.890625 38.847656 100.773438 38.847656 C 101.140625 38.847656 101.679688 38.695312 101.917969 38.542969 L 101.917969 39.054688 "/>
<path style=" stroke:none;fill-rule:nonzero;fill:rgb(100%,100%,100%);fill-opacity:1;" d="M 106.480469 38.46875 C 106.808594 38.679688 107.195312 38.800781 107.714844 38.800781 C 108.402344 38.800781 108.972656 38.445312 108.972656 37.648438 C 108.972656 36.546875 106.410156 36.410156 106.410156 34.9375 C 106.410156 34.039062 107.195312 33.472656 108.179688 33.472656 C 108.449219 33.472656 108.890625 33.515625 109.277344 33.660156 L 109.1875 34.167969 C 108.941406 34.027344 108.546875 33.957031 108.171875 33.957031 C 107.59375 33.957031 106.960938 34.199219 106.960938 34.921875 C 106.960938 36.046875 109.523438 36.054688 109.523438 37.695312 C 109.523438 38.832031 108.554688 39.28125 107.691406 39.28125 C 107.144531 39.28125 106.722656 39.167969 106.425781 39.039062 L 106.480469 38.46875 "/>
<path style=" stroke:none;fill-rule:nonzero;fill:rgb(100%,100%,100%);fill-opacity:1;" d="M 112.621094 39.183594 L 112.03125 39.183594 L 110.644531 35.082031 L 111.195312 35.082031 L 112.324219 38.628906 L 112.339844 38.628906 L 113.527344 35.082031 L 114.054688 35.082031 L 112.621094 39.183594 "/>
<path style=" stroke:none;fill-rule:nonzero;fill:rgb(100%,100%,100%);fill-opacity:1;" d="M 115.382812 35.082031 L 115.886719 35.082031 L 115.886719 39.183594 L 115.382812 39.183594 Z M 115.886719 33.988281 L 115.382812 33.988281 L 115.382812 33.3125 L 115.886719 33.3125 L 115.886719 33.988281 "/>
<path style=" stroke:none;fill-rule:nonzero;fill:rgb(100%,100%,100%);fill-opacity:1;" d="M 117.410156 38.757812 L 119.867188 35.515625 L 117.503906 35.515625 L 117.503906 35.082031 L 120.453125 35.082031 L 120.453125 35.515625 L 117.996094 38.75 L 120.453125 38.75 L 120.453125 39.183594 L 117.410156 39.183594 L 117.410156 38.757812 "/>
<path style=" stroke:none;fill-rule:nonzero;fill:rgb(100%,100%,100%);fill-opacity:1;" d="M 121.589844 38.757812 L 124.046875 35.515625 L 121.683594 35.515625 L 121.683594 35.082031 L 124.628906 35.082031 L 124.628906 35.515625 L 122.171875 38.75 L 124.628906 38.75 L 124.628906 39.183594 L 121.589844 39.183594 L 121.589844 38.757812 "/>
<path style=" stroke:none;fill-rule:nonzero;fill:rgb(100%,100%,100%);fill-opacity:1;" d="M 128.632812 36.84375 C 128.632812 36.128906 128.34375 35.421875 127.59375 35.421875 C 126.847656 35.421875 126.390625 36.167969 126.390625 36.84375 Z M 128.882812 39.054688 C 128.527344 39.203125 128.074219 39.28125 127.695312 39.28125 C 126.34375 39.28125 125.839844 38.363281 125.839844 37.132812 C 125.839844 35.878906 126.527344 34.984375 127.558594 34.984375 C 128.714844 34.984375 129.183594 35.917969 129.183594 37.019531 L 129.183594 37.277344 L 126.390625 37.277344 C 126.390625 38.148438 126.855469 38.847656 127.738281 38.847656 C 128.105469 38.847656 128.640625 38.695312 128.882812 38.542969 L 128.882812 39.054688 "/>
<path style=" stroke:none;fill-rule:nonzero;fill:rgb(100%,100%,100%);fill-opacity:1;" d="M 130.769531 36 C 130.769531 35.550781 130.769531 35.378906 130.738281 35.082031 L 131.242188 35.082031 L 131.242188 35.871094 L 131.257812 35.871094 C 131.445312 35.414062 131.789062 34.984375 132.308594 34.984375 C 132.429688 34.984375 132.574219 35.011719 132.660156 35.035156 L 132.660156 35.566406 C 132.558594 35.535156 132.421875 35.515625 132.292969 35.515625 C 131.492188 35.515625 131.277344 36.417969 131.277344 37.15625 L 131.277344 39.183594 L 130.769531 39.183594 L 130.769531 36 "/>
<path style=" stroke:none;fill-rule:nonzero;fill:rgb(100%,100%,100%);fill-opacity:1;" d="M 136.359375 37.117188 L 136.214844 37.117188 C 135.34375 37.117188 134.300781 37.207031 134.300781 38.109375 C 134.300781 38.644531 134.6875 38.847656 135.152344 38.847656 C 136.335938 38.847656 136.359375 37.808594 136.359375 37.367188 Z M 136.40625 38.527344 L 136.390625 38.527344 C 136.167969 39.015625 135.597656 39.28125 135.09375 39.28125 C 133.933594 39.28125 133.75 38.492188 133.75 38.125 C 133.75 36.75 135.207031 36.683594 136.261719 36.683594 L 136.359375 36.683594 L 136.359375 36.472656 C 136.359375 35.773438 136.109375 35.421875 135.429688 35.421875 C 135.007812 35.421875 134.605469 35.515625 134.230469 35.757812 L 134.230469 35.269531 C 134.542969 35.113281 135.070312 34.984375 135.429688 34.984375 C 136.4375 34.984375 136.863281 35.445312 136.863281 36.515625 L 136.863281 38.324219 C 136.863281 38.65625 136.863281 38.902344 136.902344 39.183594 L 136.40625 39.183594 L 136.40625 38.527344 "/>
<path style=" stroke:none;fill-rule:nonzero;fill:rgb(100%,100%,100%);fill-opacity:1;" d="M 44.886719 45.292969 C 44.53125 45.109375 44.027344 45.050781 43.636719 45.050781 C 42.1875 45.050781 41.371094 46.082031 41.371094 47.472656 C 41.371094 48.886719 42.164062 49.894531 43.636719 49.894531 C 44.003906 49.894531 44.5625 49.84375 44.886719 49.652344 L 44.917969 50.136719 C 44.613281 50.320312 43.988281 50.375 43.636719 50.375 C 41.875 50.375 40.816406 49.210938 40.816406 47.472656 C 40.816406 45.769531 41.90625 44.570312 43.636719 44.570312 C 43.964844 44.570312 44.628906 44.625 44.917969 44.777344 L 44.886719 45.292969 "/>
<path style=" stroke:none;fill-rule:nonzero;fill:rgb(100%,100%,100%);fill-opacity:1;" d="M 48.351562 49.941406 C 49.230469 49.941406 49.703125 49.179688 49.703125 48.230469 C 49.703125 47.28125 49.230469 46.515625 48.351562 46.515625 C 47.472656 46.515625 47 47.28125 47 48.230469 C 47 49.179688 47.472656 49.941406 48.351562 49.941406 Z M 48.351562 46.082031 C 49.671875 46.082031 50.257812 47.109375 50.257812 48.230469 C 50.257812 49.347656 49.671875 50.375 48.351562 50.375 C 47.03125 50.375 46.445312 49.347656 46.445312 48.230469 C 46.445312 47.109375 47.03125 46.082031 48.351562 46.082031 "/>
<path style=" stroke:none;fill-rule:nonzero;fill:rgb(100%,100%,100%);fill-opacity:1;" d="M 51.832031 47.144531 C 51.832031 46.828125 51.832031 46.507812 51.800781 46.175781 L 52.289062 46.175781 L 52.289062 46.910156 L 52.304688 46.910156 C 52.472656 46.539062 52.777344 46.082031 53.625 46.082031 C 54.636719 46.082031 55.019531 46.757812 55.019531 47.65625 L 55.019531 50.28125 L 54.515625 50.28125 L 54.515625 47.785156 C 54.515625 47.015625 54.242188 46.515625 53.546875 46.515625 C 52.625 46.515625 52.339844 47.328125 52.339844 48.011719 L 52.339844 50.28125 L 51.832031 50.28125 L 51.832031 47.144531 "/>
<path style=" stroke:none;fill-rule:nonzero;fill:rgb(100%,100%,100%);fill-opacity:1;" d="M 57.253906 46.613281 L 56.429688 46.613281 L 56.429688 46.175781 L 57.253906 46.175781 L 57.253906 45.878906 C 57.253906 45.019531 57.285156 44.152344 58.335938 44.152344 C 58.496094 44.152344 58.710938 44.175781 58.808594 44.230469 L 58.773438 44.671875 C 58.671875 44.617188 58.519531 44.585938 58.375 44.585938 C 57.6875 44.585938 57.757812 45.332031 57.757812 45.824219 L 57.757812 46.175781 L 58.679688 46.175781 L 58.679688 46.613281 L 57.757812 46.613281 L 57.757812 50.28125 L 57.253906 50.28125 L 57.253906 46.613281 "/>
<path style=" stroke:none;fill-rule:nonzero;fill:rgb(100%,100%,100%);fill-opacity:1;" d="M 62.691406 47.9375 C 62.691406 47.222656 62.402344 46.515625 61.648438 46.515625 C 60.902344 46.515625 60.449219 47.261719 60.449219 47.9375 Z M 62.9375 50.152344 C 62.585938 50.296875 62.128906 50.375 61.753906 50.375 C 60.398438 50.375 59.894531 49.460938 59.894531 48.230469 C 59.894531 46.972656 60.585938 46.082031 61.617188 46.082031 C 62.769531 46.082031 63.242188 47.015625 63.242188 48.117188 L 63.242188 48.375 L 60.449219 48.375 C 60.449219 49.242188 60.914062 49.941406 61.792969 49.941406 C 62.160156 49.941406 62.699219 49.789062 62.9375 49.636719 L 62.9375 50.152344 "/>
<path style=" stroke:none;fill-rule:nonzero;fill:rgb(100%,100%,100%);fill-opacity:1;" d="M 66.347656 49.941406 C 67.246094 49.941406 67.558594 48.976562 67.558594 48.230469 C 67.558594 47.480469 67.246094 46.515625 66.347656 46.515625 C 65.386719 46.515625 65.140625 47.433594 65.140625 48.230469 C 65.140625 49.027344 65.386719 49.941406 66.347656 49.941406 Z M 68.0625 50.28125 L 67.558594 50.28125 L 67.558594 49.628906 L 67.542969 49.628906 C 67.269531 50.152344 66.851562 50.375 66.269531 50.375 C 65.148438 50.375 64.585938 49.445312 64.585938 48.230469 C 64.585938 46.980469 65.066406 46.082031 66.269531 46.082031 C 67.070312 46.082031 67.46875 46.667969 67.542969 46.871094 L 67.558594 46.871094 L 67.558594 44.246094 L 68.0625 44.246094 L 68.0625 50.28125 "/>
<path style=" stroke:none;fill-rule:nonzero;fill:rgb(100%,100%,100%);fill-opacity:1;" d="M 72.390625 47.9375 C 72.390625 47.222656 72.105469 46.515625 71.351562 46.515625 C 70.605469 46.515625 70.152344 47.261719 70.152344 47.9375 Z M 72.640625 50.152344 C 72.289062 50.296875 71.832031 50.375 71.457031 50.375 C 70.101562 50.375 69.597656 49.460938 69.597656 48.230469 C 69.597656 46.972656 70.289062 46.082031 71.320312 46.082031 C 72.472656 46.082031 72.945312 47.015625 72.945312 48.117188 L 72.945312 48.375 L 70.152344 48.375 C 70.152344 49.242188 70.617188 49.941406 71.496094 49.941406 C 71.863281 49.941406 72.402344 49.789062 72.640625 49.636719 L 72.640625 50.152344 "/>
<path style=" stroke:none;fill-rule:nonzero;fill:rgb(100%,100%,100%);fill-opacity:1;" d="M 74.53125 47.09375 C 74.53125 46.644531 74.53125 46.476562 74.5 46.175781 L 75.003906 46.175781 L 75.003906 46.964844 L 75.019531 46.964844 C 75.203125 46.507812 75.546875 46.082031 76.066406 46.082031 C 76.1875 46.082031 76.332031 46.105469 76.417969 46.128906 L 76.417969 46.660156 C 76.316406 46.628906 76.179688 46.613281 76.050781 46.613281 C 75.25 46.613281 75.035156 47.511719 75.035156 48.253906 L 75.035156 50.28125 L 74.53125 50.28125 L 74.53125 47.09375 "/>
<path style=" stroke:none;fill-rule:nonzero;fill:rgb(100%,100%,100%);fill-opacity:1;" d="M 80.117188 48.210938 L 79.972656 48.210938 C 79.101562 48.210938 78.0625 48.300781 78.0625 49.203125 C 78.0625 49.742188 78.445312 49.941406 78.910156 49.941406 C 80.09375 49.941406 80.117188 48.90625 80.117188 48.460938 Z M 80.167969 49.621094 L 80.152344 49.621094 C 79.925781 50.109375 79.359375 50.375 78.851562 50.375 C 77.691406 50.375 77.507812 49.589844 77.507812 49.21875 C 77.507812 47.84375 78.964844 47.777344 80.023438 47.777344 L 80.117188 47.777344 L 80.117188 47.570312 C 80.117188 46.871094 79.871094 46.515625 79.191406 46.515625 C 78.765625 46.515625 78.363281 46.613281 77.988281 46.851562 L 77.988281 46.363281 C 78.300781 46.210938 78.828125 46.082031 79.191406 46.082031 C 80.199219 46.082031 80.621094 46.539062 80.621094 47.609375 L 80.621094 49.417969 C 80.621094 49.75 80.621094 50 80.664062 50.28125 L 80.167969 50.28125 L 80.167969 49.621094 "/>
<path style=" stroke:none;fill-rule:nonzero;fill:rgb(100%,100%,100%);fill-opacity:1;" d="M 82.070312 49.855469 L 84.53125 46.613281 L 82.167969 46.613281 L 82.167969 46.175781 L 85.113281 46.175781 L 85.113281 46.613281 L 82.65625 49.84375 L 85.113281 49.84375 L 85.113281 50.28125 L 82.070312 50.28125 L 82.070312 49.855469 "/>
<path style=" stroke:none;fill-rule:nonzero;fill:rgb(100%,100%,100%);fill-opacity:1;" d="M 86.625 46.175781 L 87.132812 46.175781 L 87.132812 50.28125 L 86.625 50.28125 Z M 87.132812 45.082031 L 86.625 45.082031 L 86.625 44.40625 L 87.132812 44.40625 L 87.132812 45.082031 "/>
<path style=" stroke:none;fill-rule:nonzero;fill:rgb(100%,100%,100%);fill-opacity:1;" d="M 92.214844 49.316406 C 92.214844 49.628906 92.214844 49.949219 92.246094 50.28125 L 91.757812 50.28125 L 91.757812 49.546875 L 91.742188 49.546875 C 91.574219 49.917969 91.269531 50.375 90.421875 50.375 C 89.414062 50.375 89.027344 49.703125 89.027344 48.800781 L 89.027344 46.175781 L 89.53125 46.175781 L 89.53125 48.671875 C 89.53125 49.445312 89.804688 49.941406 90.5 49.941406 C 91.421875 49.941406 91.710938 49.128906 91.710938 48.445312 L 91.710938 46.175781 L 92.214844 46.175781 L 92.214844 49.316406 "/>
<path style=" stroke:none;fill-rule:nonzero;fill:rgb(100%,100%,100%);fill-opacity:1;" d="M 94.105469 47.144531 C 94.105469 46.828125 94.105469 46.507812 94.074219 46.175781 L 94.558594 46.175781 L 94.558594 46.910156 L 94.578125 46.910156 C 94.746094 46.539062 95.046875 46.082031 95.898438 46.082031 C 96.90625 46.082031 97.289062 46.757812 97.289062 47.65625 L 97.289062 50.28125 L 96.785156 50.28125 L 96.785156 47.785156 C 96.785156 47.015625 96.515625 46.515625 95.816406 46.515625 C 94.898438 46.515625 94.609375 47.328125 94.609375 48.011719 L 94.609375 50.28125 L 94.105469 50.28125 L 94.105469 47.144531 "/>
<path style=" stroke:none;fill-rule:nonzero;fill:rgb(100%,100%,100%);fill-opacity:1;" d="M 101.636719 49.683594 C 101.941406 49.835938 102.308594 49.941406 102.703125 49.941406 C 103.183594 49.941406 103.605469 49.675781 103.605469 49.210938 C 103.605469 48.238281 101.644531 48.390625 101.644531 47.199219 C 101.644531 46.386719 102.300781 46.082031 102.972656 46.082031 C 103.191406 46.082031 103.625 46.128906 103.984375 46.265625 L 103.933594 46.707031 C 103.671875 46.585938 103.3125 46.515625 103.03125 46.515625 C 102.511719 46.515625 102.148438 46.675781 102.148438 47.199219 C 102.148438 47.964844 104.160156 47.867188 104.160156 49.210938 C 104.160156 50.078125 103.351562 50.375 102.734375 50.375 C 102.34375 50.375 101.949219 50.328125 101.589844 50.183594 L 101.636719 49.683594 "/>
<path style=" stroke:none;fill-rule:nonzero;fill:rgb(100%,100%,100%);fill-opacity:1;" d="M 107.105469 50.28125 L 106.511719 50.28125 L 105.128906 46.175781 L 105.679688 46.175781 L 106.808594 49.726562 L 106.824219 49.726562 L 108.011719 46.175781 L 108.539062 46.175781 L 107.105469 50.28125 "/>
<path style=" stroke:none;fill-rule:nonzero;fill:rgb(100%,100%,100%);fill-opacity:1;" d="M 109.867188 46.175781 L 110.371094 46.175781 L 110.371094 50.28125 L 109.867188 50.28125 Z M 110.371094 45.082031 L 109.867188 45.082031 L 109.867188 44.40625 L 110.371094 44.40625 L 110.371094 45.082031 "/>
<path style=" stroke:none;fill-rule:nonzero;fill:rgb(100%,100%,100%);fill-opacity:1;" d="M 111.894531 49.855469 L 114.351562 46.613281 L 111.988281 46.613281 L 111.988281 46.175781 L 114.933594 46.175781 L 114.933594 46.613281 L 112.476562 49.84375 L 114.933594 49.84375 L 114.933594 50.28125 L 111.894531 50.28125 L 111.894531 49.855469 "/>
<path style=" stroke:none;fill-rule:nonzero;fill:rgb(100%,100%,100%);fill-opacity:1;" d="M 116.449219 47.09375 C 116.449219 46.644531 116.449219 46.476562 116.417969 46.175781 L 116.921875 46.175781 L 116.921875 46.964844 L 116.9375 46.964844 C 117.121094 46.507812 117.464844 46.082031 117.984375 46.082031 C 118.105469 46.082031 118.25 46.105469 118.339844 46.128906 L 118.339844 46.660156 C 118.234375 46.628906 118.097656 46.613281 117.96875 46.613281 C 117.167969 46.613281 116.953125 47.511719 116.953125 48.253906 L 116.953125 50.28125 L 116.449219 50.28125 L 116.449219 47.09375 "/>
<path style=" stroke:none;fill-rule:nonzero;fill:rgb(100%,100%,100%);fill-opacity:1;" d="M 122.035156 48.210938 L 121.894531 48.210938 C 121.019531 48.210938 119.980469 48.300781 119.980469 49.203125 C 119.980469 49.742188 120.363281 49.941406 120.828125 49.941406 C 122.011719 49.941406 122.035156 48.90625 122.035156 48.460938 Z M 122.085938 49.621094 L 122.070312 49.621094 C 121.84375 50.109375 121.277344 50.375 120.773438 50.375 C 119.609375 50.375 119.425781 49.589844 119.425781 49.21875 C 119.425781 47.84375 120.882812 47.777344 121.941406 47.777344 L 122.035156 47.777344 L 122.035156 47.570312 C 122.035156 46.871094 121.789062 46.515625 121.109375 46.515625 C 120.683594 46.515625 120.28125 46.613281 119.90625 46.851562 L 119.90625 46.363281 C 120.21875 46.210938 120.746094 46.082031 121.109375 46.082031 C 122.117188 46.082031 122.539062 46.539062 122.539062 47.609375 L 122.539062 49.417969 C 122.539062 49.75 122.539062 50 122.582031 50.28125 L 122.085938 50.28125 L 122.085938 49.621094 "/>
<path style=" stroke:none;fill-rule:nonzero;fill:rgb(100%,0%,0%);fill-opacity:1;" d="M 31.734375 11.132812 C 31.734375 11.132812 27.5 9.269531 20.410156 9.269531 C 13.320312 9.269531 9.085938 11.132812 9.085938 11.132812 C 9.085938 11.132812 8.707031 19.382812 10.3125 24.050781 C 13.152344 32.25 20.40625 34.554688 20.40625 34.554688 L 20.414062 34.554688 C 20.414062 34.554688 27.667969 32.25 30.507812 24.050781 C 32.113281 19.382812 31.734375 11.132812 31.734375 11.132812 "/>
<path style=" stroke:none;fill-rule:nonzero;fill:rgb(100%,100%,100%);fill-opacity:1;" d="M 27.9375 18.246094 L 27.9375 22.792969 L 22.65625 22.792969 L 22.65625 28.09375 L 18.132812 28.09375 L 18.132812 22.792969 L 12.855469 22.792969 L 12.855469 18.246094 L 18.132812 18.246094 L 18.132812 12.945312 L 22.65625 12.945312 L 22.65625 18.246094 L 27.9375 18.246094 "/>
</g>
</svg>
